<?xml version="1.0" encoding="utf-8"?>
<!-- Generator: Adobe Illustrator 23.0.2, SVG Export Plug-In . SVG Version: 6.00 Build 0)  -->
<svg version="1.1" id="Layer_1" xmlns="http://www.w3.org/2000/svg" xmlns:xlink="http://www.w3.org/1999/xlink" x="0px" y="0px"
	 viewBox="0 0 850.39 850.39" style="enable-background:new 0 0 850.39 850.39;" xml:space="preserve">
<style type="text/css">
	.st0{fill:#11426D;}
	.st1{fill:#F7BC7E;}
	.st2{fill:#D4A272;}
	.st3{fill:#F4F0DA;}
	.st4{fill:#FFFFFF;}
	.st5{fill:#4C4D4C;}
	.st6{fill:#E2DEC7;}
	.st7{fill:none;stroke:#4C4D4C;stroke-width:2;stroke-linecap:round;stroke-miterlimit:10;}
</style>
<g>
	<ellipse class="st0" cx="421.9" cy="298.89" rx="32.35" ry="24.61"/>
	<ellipse transform="matrix(0.866 -0.5 0.5 0.866 -93.8375 284.3145)" class="st0" cx="483.62" cy="317.26" rx="24.61" ry="32.35"/>
	
		<ellipse transform="matrix(0.7656 -0.6434 0.6434 0.7656 -120.0221 305.1488)" class="st0" cx="358.69" cy="317.26" rx="32.35" ry="24.61"/>
	<ellipse class="st0" cx="438.59" cy="301.12" rx="32.35" ry="24.61"/>
	<ellipse class="st0" cx="406.24" cy="300.95" rx="32.35" ry="24.61"/>
	
		<ellipse transform="matrix(0.7071 -0.7071 0.7071 0.7071 -105.7779 453.2181)" class="st0" cx="494.19" cy="354.29" rx="32.35" ry="24.61"/>
	
		<ellipse transform="matrix(0.8858 -0.4642 0.4642 0.8858 -123.6101 201.365)" class="st0" cx="347.25" cy="351.78" rx="24.61" ry="32.35"/>
	<g>
		<ellipse class="st1" cx="364.16" cy="282.88" rx="24.23" ry="66.91"/>
		
			<ellipse transform="matrix(0.9804 -0.1971 0.1971 0.9804 -48.5004 79.7159)" class="st1" cx="376.25" cy="283.53" rx="24.23" ry="58.01"/>
		
			<ellipse transform="matrix(0.9938 -0.1111 0.1111 0.9938 -30.6689 42.1582)" class="st2" cx="363.02" cy="296.32" rx="19.46" ry="53.75"/>
	</g>
	<g>
		<ellipse class="st1" cx="477.85" cy="282.88" rx="24.23" ry="66.91"/>
		
			<ellipse transform="matrix(0.1971 -0.9804 0.9804 0.1971 95.9927 684.2728)" class="st1" cx="465.76" cy="283.53" rx="58.01" ry="24.23"/>
		
			<ellipse transform="matrix(0.1111 -0.9938 0.9938 0.1111 131.2988 739.4333)" class="st2" cx="478.99" cy="296.32" rx="53.75" ry="19.46"/>
	</g>
	<path class="st1" d="M472.64,478.92H371.15c-13.51,0-24.47-10.96-24.47-24.47V332.59c0-18.02,14.61-32.62,32.62-32.62h85.17
		c18.02,0,32.62,14.61,32.62,32.62v121.86C497.11,467.96,486.16,478.92,472.64,478.92z"/>
	<path class="st3" d="M468.98,433.73v0.16c-0.07,9.36-5.6,17.43-13.56,21.16c-3.71,4.4-7.79,8.48-12.2,12.17
		c-3.73,8-11.83,13.53-21.23,13.58h-0.09c-0.53,0-1.06-0.02-1.59-0.05c-7.98-0.53-14.85-5.03-18.67-11.55
		c-0.02-0.02-0.02-0.02-0.02-0.02c-5.79-4.56-11.07-9.75-15.68-15.47c-5.79-3.57-9.89-9.59-10.88-16.62
		c-0.16-1.11-0.25-2.21-0.25-3.37c0-13,10.56-23.56,23.56-23.56c1.04,0,2.07,0.07,3.09,0.21c5.42,0.71,10.26,3.27,13.86,7.03
		c2.12,0.46,4.33,0.69,6.59,0.69c2.26,0,4.47-0.23,6.59-0.69c3.6-3.76,8.41-6.32,13.83-7.03c1.01-0.14,2.05-0.21,3.11-0.21
		C458.45,410.17,468.98,420.73,468.98,433.73z"/>
	<g>
		<path class="st4" d="M385.87,410.03h-19.65c-4.14,0-7.53-3.39-7.53-7.53v-48.28c0-4.14,3.39-7.53,7.53-7.53h19.65
			c4.14,0,7.53,3.39,7.53,7.53v48.28C393.39,406.64,390.01,410.03,385.87,410.03z"/>
		<path class="st5" d="M380.57,393.7h-9.66c-1.83,0-3.33-1.5-3.33-3.33v-22.29c0-1.83,1.5-3.33,3.33-3.33h9.66
			c1.83,0,3.33,1.5,3.33,3.33v22.29C383.89,392.2,382.4,393.7,380.57,393.7z"/>
		<circle class="st4" cx="369.27" cy="367.18" r="6.77"/>
	</g>
	<g>
		<path class="st4" d="M475.58,410.03h-19.65c-4.14,0-7.53-3.39-7.53-7.53v-48.28c0-4.14,3.39-7.53,7.53-7.53h19.65
			c4.14,0,7.53,3.39,7.53,7.53v48.28C483.11,406.64,479.72,410.03,475.58,410.03z"/>
		<path class="st5" d="M470.28,393.7h-9.66c-1.83,0-3.33-1.5-3.33-3.33v-22.29c0-1.83,1.5-3.33,3.33-3.33h9.66
			c1.83,0,3.33,1.5,3.33,3.33v22.29C473.61,392.2,472.11,393.7,470.28,393.7z"/>
		<circle class="st4" cx="458.98" cy="367.18" r="6.77"/>
	</g>
	<g>
		<path class="st6" d="M505.44,480.16c0.55,2.17,0.85,4.43,0.85,6.75c0,14.92-12.08,27.02-27.02,27.02c-3.78,0-7.38-0.78-10.65-2.17
			c-4.5,8.67-13.56,14.59-24,14.59c-3.25,0-6.36-0.58-9.27-1.64c-4.75,4.15-10.97,6.66-17.75,6.66c-5.83,0-11.27-1.87-15.7-5.05
			c-3.78,2.03-8.09,3.16-12.68,3.16c-12.22,0-22.55-8.11-25.87-19.25c-0.95,0.09-1.89,0.14-2.86,0.14
			c-14.92,0-27.02-12.1-27.02-27.02c0-2.24,0.28-4.43,0.81-6.5c-8.07-4.66-13.51-13.39-13.51-23.4c0-14.92,12.1-27.02,27.02-27.02
			c10.9,0,20.29,6.46,24.58,15.77c9.87,1.11,18.12,7.56,21.83,16.39c4.45-3.25,9.94-5.14,15.84-5.14c7.4,0,14.13,2.97,19.02,7.82
			c2.67-0.9,5.53-1.38,8.51-1.38c3.43,0,6.71,0.65,9.73,1.8c2.33-11.41,11.85-20.22,23.65-21.44c4.91-6.64,12.82-10.93,21.69-10.93
			c14.92,0,27.02,12.1,27.02,27.02C519.66,466.63,513.9,475.6,505.44,480.16z"/>
		<path class="st6" d="M396.54,358.13h-41c-1.44,0-2.6-1.16-2.6-2.6v-11.5c0-1.44,1.16-2.6,2.6-2.6h41c1.44,0,2.6,1.16,2.6,2.6v11.5
			C399.14,356.97,397.98,358.13,396.54,358.13z"/>
		<path class="st6" d="M486.26,358.13h-41c-1.44,0-2.6-1.16-2.6-2.6v-11.5c0-1.44,1.16-2.6,2.6-2.6h41c1.44,0,2.6,1.16,2.6,2.6v11.5
			C488.86,356.97,487.69,358.13,486.26,358.13z"/>
	</g>
	<g>
		<g>
			<path class="st7" d="M421.9,432.78c0,8.65-7.01,15.66-15.66,15.66c-8.65,0-15.66-7.01-15.66-15.66"/>
			<path class="st7" d="M453.22,432.78c0,8.65-7.01,15.66-15.66,15.66c-8.65,0-15.66-7.01-15.66-15.66"/>
			<line class="st7" x1="421.9" y1="432.78" x2="421.9" y2="422.89"/>
		</g>
		<path class="st5" d="M439.4,420.19c-5.69,3.3-11.48,5.07-16.21,5.3h-0.3c-0.32,0.02-0.65,0.05-0.99,0.05
			c-0.35,0-0.67-0.02-0.99-0.05c-0.09,0.05-0.18,0.02-0.3,0c-4.73-0.23-10.51-2.01-16.21-5.3c-11.09-6.41-17.52-16-14.39-21.46
			c3.16-5.44,14.69-4.66,25.77,1.73c2.24,1.29,4.29,2.72,6.11,4.2c1.82-1.48,3.87-2.9,6.11-4.2c11.09-6.39,22.62-7.17,25.77-1.73
			C456.92,404.19,450.48,413.78,439.4,420.19z"/>
	</g>
	
		<ellipse transform="matrix(0.1111 -0.9938 0.9938 0.1111 72.3227 707.2179)" class="st0" cx="431.5" cy="313.18" rx="24.61" ry="32.35"/>
	<path class="st0" d="M512.46,340.86c-5.71,12.33-23.49,16.23-39.7,8.72c-3.95-1.83-7.44-4.17-10.38-6.85
		c-0.32-0.28-0.64-0.57-0.94-0.88c-0.72,0.23-1.45,0.43-2.2,0.61c-3.09,0.75-6.37,1.15-9.78,1.15c-8.82,0-16.81-2.69-22.65-7.04
		c-5.47,1.88-11.89,2.4-18.51,1.24c-5.9,4.75-14.26,7.72-23.54,7.72c-2.44,0-4.81-0.21-7.09-0.6c-2,1.76-4.24,3.36-6.68,4.77
		c-15.47,8.94-33.52,6.64-40.32-5.13c-6.79-11.77,0.24-28.55,15.72-37.49c3.66-2.11,7.45-3.59,11.21-4.46
		c3.84-3.1,8.54-5.61,13.86-7.2c5.33-1.59,10.65-2.06,15.57-1.56c7.36-5.62,18.79-7.61,30.35-4.39c6.14,1.71,11.5,4.65,15.67,8.33
		c1.18-0.54,2.41-1.01,3.68-1.42c7.66-4.99,19-6.22,30.18-2.42c5.02,1.71,9.45,4.24,13.08,7.3c4.42,0.4,9,1.6,13.46,3.67
		C509.66,312.44,518.17,328.53,512.46,340.86z"/>
	<path class="st0" d="M462.38,342.73c-1.03-0.04-2.08-0.14-3.14-0.27c0.75-0.18,1.48-0.38,2.2-0.61
		C461.74,342.16,462.06,342.45,462.38,342.73z"/>
</g>
<g>
	<g>
		<path class="st0" d="M271.12,546.3h4.54c2.33,0,4.23,1.9,4.23,4.23v54.94c0,2.33-1.9,4.23-4.23,4.23h-4.54
			c-9.46,0-17.2-7.74-17.2-17.2v-29.02C253.92,554.03,261.66,546.3,271.12,546.3z"/>
		<path class="st0" d="M235.02,609.49h-4.54c-2.33,0-4.23-1.9-4.23-4.23V494.57c0-2.33,1.9-4.23,4.23-4.23h4.54
			c9.46,0,17.2,7.74,17.2,17.2v84.76C252.21,601.76,244.48,609.49,235.02,609.49z"/>
	</g>
	<path class="st1" d="M336.7,564.32v7.36c0,9.46-7.73,17.19-17.19,17.19h-4.55c-2.32,0-4.23-1.9-4.23-4.23v-12.37h-1.87v33.2
		c0,2.33-1.9,4.23-4.23,4.23h-4.54c-9.46,0-17.2-7.73-17.2-17.19v-29.02c0-9.46,7.74-17.2,17.2-17.2h16.71
		c2.24,0,4.39,0.44,6.36,1.23C330.88,549.21,336.7,556.12,336.7,564.32z"/>
	<path class="st1" d="M398.46,564.32v29.02c0,9.46-7.74,17.2-17.19,17.2h-4.55c-2.33,0-4.23-1.91-4.23-4.23V573.1h-6.26v20.24
		c0,9.46-7.74,17.2-17.2,17.2h-4.54c-2.33,0-4.23-1.91-4.23-4.23v-54.95c0-2.33,1.9-4.23,4.23-4.23h4.54c2.95,0,5.74,0.76,8.17,2.09
		c0-0.01,0.01,0,0.01,0c2.43-1.33,5.22-2.09,8.17-2.09h15.89C390.72,547.13,398.46,554.87,398.46,564.32z"/>
	<path class="st1" d="M513.82,567.11v28.53c0,8.21-5.83,15.12-13.55,16.8c-1.97,0.79-4.11,1.23-6.35,1.23H477.2
		c-9.46,0-17.2-7.74-17.2-17.2v-29.02c0-9.45,7.74-17.19,17.2-17.19h4.54c2.33,0,4.23,1.9,4.23,4.23v33.21h1.87v-33.55
		c0-2.33,1.91-4.24,4.24-4.24h4.54C506.08,549.91,513.82,557.65,513.82,567.11z"/>
	<path class="st1" d="M567.21,567.45V572c0,2.33-1.9,4.23-4.23,4.23h-20.9v33.21c0,2.32-1.91,4.23-4.24,4.23h-4.54
		c-9.46,0-17.2-7.74-17.2-17.2v-29.02c0-9.45,7.74-17.19,17.2-17.19h16.72C559.47,550.26,567.21,558,567.21,567.45z"/>
	<path class="st1" d="M624.15,567.28v28.53c0,8.21-5.83,15.12-13.55,16.81c-1.97,0.79-4.11,1.22-6.35,1.22h-16.72
		c-9.46,0-17.2-7.74-17.2-17.2v-29.01c0-9.46,7.74-17.2,17.2-17.2h4.54c2.33,0,4.24,1.9,4.24,4.23v33.21h1.87v-33.55
		c0-2.33,1.9-4.23,4.23-4.23h4.54C616.41,550.09,624.15,557.82,624.15,567.28z"/>
	<g>
		<path class="st0" d="M456.14,565.16v104.95c0,9.46-7.74,17.2-17.2,17.2h-4.54c-2.33,0-4.23-1.9-4.23-4.23V573.1h-1.87v33.21
			c0,2.32-1.91,4.23-4.24,4.23h-4.54c-9.46,0-17.19-7.74-17.19-17.2v-29.02c0-9.45,7.73-17.19,17.19-17.19h16.72
			c2.23,0,4.36,0.43,6.32,1.22C450.3,550.02,456.14,556.94,456.14,565.16z"/>
		<path class="st0" d="M419.52,637.04h4.54c2.33,0,4.23,1.9,4.23,4.23v41.81c0,2.33-1.9,4.23-4.23,4.23h-4.54
			c-9.46,0-17.2-7.74-17.2-17.2v-15.88C402.33,644.78,410.07,637.04,419.52,637.04z"/>
	</g>
</g>
</svg>
